<?xml version="1.0" standalone="no"?>
<!DOCTYPE svg PUBLIC "-//W3C//DTD SVG 20010904//EN"
 "http://www.w3.org/TR/2001/REC-SVG-20010904/DTD/svg10.dtd">
<svg version="1.0" xmlns="http://www.w3.org/2000/svg"
 width="300.000000pt" height="300.000000pt" viewBox="0 0 300.000000 300.000000"
 preserveAspectRatio="xMidYMid meet">
<metadata>
Created by potrace 1.14, written by Peter Selinger 2001-2017
</metadata>
<g transform="translate(0.000000,300.000000) scale(0.100000,-0.100000)"
fill="#000000" stroke="none">
<path d="M1374 2939 c-4 -8 93 -58 266 -136 l55 -25 -98 -49 c-54 -27 -103
-49 -109 -49 -5 0 -80 30 -166 66 -85 36 -161 68 -169 71 -9 4 -11 0 -7 -11 3
-9 11 -16 18 -16 6 0 78 -29 160 -64 162 -70 162 -71 63 -100 -39 -11 -49 -9
-167 36 -69 26 -134 52 -145 57 -35 17 -65 23 -65 13 0 -6 15 -15 33 -21 115
-40 277 -108 277 -116 0 -6 -28 -22 -61 -37 l-61 -27 -72 25 c-39 14 -91 32
-116 40 -25 8 -54 19 -65 23 -63 26 -78 31 -94 31 -21 0 -33 -22 -25 -44 5
-13 150 -76 174 -76 21 0 103 -44 90 -48 -8 -2 -37 -15 -65 -29 l-49 -24 -71
21 c-38 12 -79 25 -90 30 -29 12 -238 80 -248 80 -5 0 -5 -4 -2 -10 3 -5 91
-37 195 -71 144 -47 189 -66 193 -80 4 -16 12 -18 48 -15 41 4 105 -13 296
-81 42 -14 42 -15 39 -56 -2 -23 -4 -54 -5 -69 -1 -20 -6 -28 -19 -28 -24 0
-42 -19 -42 -45 0 -16 -12 -26 -47 -41 -59 -25 -155 -102 -206 -163 -88 -107
-119 -218 -113 -406 4 -143 21 -230 91 -490 24 -88 47 -176 50 -196 21 -115
120 -161 328 -154 l97 4 1 -67 c0 -37 3 -131 5 -209 6 -140 5 -143 -15 -143
-12 0 -22 -3 -22 -7 -6 -29 -5 -214 1 -223 4 -7 61 -10 176 -8 162 3 169 4
167 23 -1 11 -5 45 -8 75 -4 30 -8 71 -10 91 -3 44 -11 60 -28 53 -10 -3 -13
8 -14 38 0 24 -3 131 -7 238 l-7 195 88 29 c48 16 103 35 122 42 l33 14 -6
117 c-4 65 -9 132 -11 148 -8 59 -16 162 -20 275 -10 217 -19 302 -47 415 -51
208 -168 341 -319 361 -28 4 -55 14 -65 25 -9 11 -25 19 -36 19 -10 0 -18 3
-18 8 -1 4 -5 26 -9 50 -7 33 -5 42 5 42 19 0 18 16 -1 23 -10 4 -14 20 -13
51 l1 45 51 -21 c82 -33 136 -44 146 -29 17 28 -2 49 -68 74 -37 14 -80 29
-95 33 -32 7 -34 11 -40 72 -3 29 0 45 8 48 6 3 89 -25 184 -62 95 -36 175
-64 178 -60 9 9 13 7 -172 78 -93 36 -171 70 -172 75 -2 5 19 18 47 30 l50 21
153 -65 c83 -35 167 -71 185 -79 22 -9 32 -10 30 -2 -3 8 -264 127 -333 151
-11 4 174 97 194 97 13 0 40 -12 244 -109 71 -33 127 -55 125 -49 -2 6 -83 49
-179 95 -97 46 -175 89 -177 98 -2 9 -15 15 -33 15 -32 0 -50 7 -237 98 -67
32 -125 55 -128 51z m-499 -339 c3 -6 -1 -7 -9 -4 -18 7 -21 14 -7 14 6 0 13
-4 16 -10z m40 -18 c-3 -3 -11 0 -18 7 -9 10 -8 11 6 5 10 -3 15 -9 12 -12z
m45 -12 c8 -5 11 -10 5 -10 -5 0 -17 5 -25 10 -8 5 -10 10 -5 10 6 0 17 -5 25
-10z m95 -38 c-3 -3 -11 0 -18 7 -9 10 -8 11 6 5 10 -3 15 -9 12 -12z m55 -14
c0 -11 -12 -10 -30 2 -12 7 -10 9 8 7 12 0 22 -5 22 -9z m237 -3 c7 -24 -13
-36 -43 -25 -28 11 -28 12 -9 26 21 16 46 15 52 -1z m-92 -55 c3 -6 -1 -7 -9
-4 -18 7 -21 14 -7 14 6 0 13 -4 16 -10z m8 -27 l77 -26 0 -50 c0 -43 -2 -48
-17 -42 -10 4 -40 13 -68 21 -27 8 -59 19 -70 24 -11 5 -44 16 -73 25 -29 10
-51 19 -49 21 8 8 102 53 112 54 6 0 45 -12 88 -27z m242 -41 c-3 -3 -11 0
-18 7 -9 10 -8 11 6 5 10 -3 15 -9 12 -12z m56 -20 c-7 -2 -18 1 -23 6 -8 8
-4 9 13 5 13 -4 18 -8 10 -11z m-26 -20 c-3 -3 -11 0 -18 7 -9 10 -8 11 6 5
10 -3 15 -9 12 -12z"/>
</g>
</svg>
